<svg width="640" height="640" viewBox="0 0 640 640" fill="none" xmlns="http://www.w3.org/2000/svg">
<circle opacity="0.1" cx="320" cy="320" r="320" fill="white"/>
<g filter="url(#filter0_d_2151_20455)">
<path fillRule="evenodd" clipRule="evenodd" d="M463.033 250.047C483.413 266.983 498.131 279.402 499.641 280.908V280.908L499.642 280.907V460.799C499.268 470.888 494.428 479.865 487.34 485.886L487.564 486.014C481.148 491.659 472.845 495.046 463.788 495.046H463.505H463.412L463.41 495.046H176.208C175.406 495.046 174.616 495.022 173.837 494.975C168.383 494.646 163.471 493.164 158.848 490.53C158.706 490.459 158.565 490.387 158.423 490.314C156.302 489.211 154.201 487.778 152.432 486.014C151.913 485.59 151.406 485.149 150.912 484.691C147.455 481.486 144.648 477.452 142.997 472.842L142.997 472.841C142.431 471.43 141.918 470.019 141.498 468.588C141.339 468.048 141.194 467.506 141.064 466.96C140.735 465.574 140.504 464.164 140.407 462.711C140.373 462.204 140.355 461.693 140.355 461.175V460.799V281.57L140.064 281.398L140.355 280.907L140.355 280.907L140.646 280.417L140.815 280.518C143.495 278.251 157.641 266.311 176.963 250.424C180.91 247.089 185.081 243.588 189.418 239.966V199.241C189.418 187.575 198.853 177.79 210.929 177.79H264.198C265.192 176.961 266.13 176.181 267.074 175.396L267.085 175.386L267.086 175.386L267.087 175.385C271.908 171.375 276.873 167.244 290.183 155.962C307.544 141.285 332.83 141.285 350.19 155.962C352.454 157.844 354.719 159.82 356.983 161.795C359.248 163.771 361.512 165.747 363.777 167.629C367.736 170.788 371.896 174.212 376.199 177.79H429.067C440.767 177.79 450.579 187.575 450.579 199.241V239.722C454.899 243.308 459.07 246.766 463.033 250.047Z" fill="#FF0000" fill-opacity="0.01" shape-rendering="crispEdges"/>
</g>
<path d="M499.643 280.908V458.917C499.643 459.67 499.643 460.046 499.643 460.799C499.266 470.96 494.36 479.992 487.189 486.014C480.773 491.659 472.47 495.046 463.413 495.046H176.211C169.795 495.046 164.134 493.541 158.85 490.53C156.586 489.401 154.321 487.895 152.434 486.014C148.283 482.627 144.886 478.111 142.999 472.842C141.49 469.078 140.357 465.315 140.357 461.175V280.908C140.357 280.908 155.453 268.112 176.965 250.424C199.232 231.607 228.669 207.521 254.333 186.069C269.051 173.65 267.542 175.156 290.186 155.962C307.546 141.285 332.832 141.285 350.192 155.962C354.721 159.726 359.25 163.865 363.779 167.629C373.214 175.156 383.781 184.188 394.726 193.22C417.747 212.413 443.033 233.488 463.035 250.047C483.415 266.983 498.134 279.402 499.643 280.908Z" fill="#85AEFF"/>
<path d="M450.582 199.241V311.391L393.217 345.638L376.234 355.799L340.003 377.251L323.02 387.412L315.849 391.552L309.056 387.412L292.828 377.251L258.484 355.799L242.256 345.638L189.42 312.52V199.241C189.42 187.575 198.855 177.79 210.932 177.79H429.07C440.769 177.79 450.582 187.575 450.582 199.241Z" fill="white"/>
<path d="M403.783 300.581H242.633C239.991 300.581 237.727 298.323 237.727 295.313C237.727 292.302 239.991 290.044 242.633 290.044H403.783C406.425 290.044 408.689 292.302 408.689 295.313C408.689 298.323 406.425 300.581 403.783 300.581Z" fill="#E8F0FF"/>
<path d="M403.783 271.771H242.633C239.991 271.771 237.727 269.513 237.727 266.502C237.727 263.491 239.991 261.233 242.633 261.233H403.783C406.425 261.233 408.689 263.491 408.689 266.502C408.689 269.513 406.425 271.771 403.783 271.771Z" fill="#E8F0FF"/>
<path d="M403.783 242.96H242.633C239.991 242.96 237.727 240.702 237.727 237.691C237.727 234.681 239.991 232.423 242.633 232.423H403.783C406.425 232.423 408.689 234.681 408.689 237.691C408.689 240.702 406.425 242.96 403.783 242.96Z" fill="#045AFF"/>
<path d="M403.783 329.392H242.633C239.991 329.392 237.727 327.134 237.727 324.123C237.727 321.113 239.991 318.855 242.633 318.855H403.783C406.425 318.855 408.689 321.113 408.689 324.123C408.689 327.134 406.425 329.392 403.783 329.392Z" fill="#E8F0FF"/>
<path d="M393.218 345.638L376.235 355.8H258.486L242.258 345.638H242.635H393.218Z" fill="#E8F0FF"/>
<path d="M340.003 377.251L323.02 387.788H309.056L292.828 377.251H340.003Z" fill="#E8F0FF"/>
<path d="M499.643 280.907V460.799C499.266 470.96 494.36 479.992 487.189 486.014C480.773 491.659 472.47 495.046 463.413 495.046H176.211C169.795 495.046 164.134 493.54 158.85 490.53C156.586 489.401 154.321 487.895 152.434 486.014C148.283 482.626 144.886 478.11 142.999 472.842C141.49 469.078 140.357 465.315 140.357 461.175V460.799V280.907L301.13 381.391L315.094 390.046L320 387.036L324.529 384.401L499.643 280.907Z" fill="#738DFF"/>
<path d="M487.567 486.014C481.151 491.659 472.848 495.046 463.79 495.046H176.211C169.795 495.046 164.134 493.54 158.85 490.53C156.586 489.401 154.321 487.895 152.434 486.014C148.283 482.626 144.886 478.11 142.999 472.842C141.49 469.078 140.357 465.315 140.357 461.175V460.799V280.907L159.227 292.198L320 387.412L324.529 390.046L324.907 390.423L469.074 475.476L487.567 486.014Z" fill="#C3D7FF"/>
<path d="M140.357 280.907L320 387.412" stroke="#AECAFF" stroke-width="1.13952" stroke-miterlimit="10"/>
<path d="M499.645 280.907V460.799C499.267 470.96 494.361 479.992 487.19 486.014C480.775 491.659 472.472 495.046 463.414 495.046H176.212C169.796 495.046 164.135 493.54 158.851 490.53C156.587 489.401 154.323 487.895 152.436 486.014L170.928 475.1L315.095 390.046L320.002 387.036L324.531 384.401L480.775 291.821L499.645 280.907Z" fill="#B5CEFF"/>
<path d="M499.645 280.907L324.531 384.401L320.002 387.036L315.095 390.046L152.436 486.013" stroke="#A4C2FF" stroke-width="1.13952" stroke-miterlimit="10"/>
<defs>
<filter id="filter0_d_2151_20455" x="53.5795" y="70.1114" width="532.548" height="523.062" filterUnits="userSpaceOnUse" color-interpolation-filters="sRGB">
<feFlood flood-opacity="0" result="BackgroundImageFix"/>
<feColorMatrix in="SourceAlpha" type="matrix" values="0 0 0 0 0 0 0 0 0 0 0 0 0 0 0 0 0 0 127 0" result="hardAlpha"/>
<feOffset dy="11.6422"/>
<feGaussianBlur stdDeviation="43.2425"/>
<feComposite in2="hardAlpha" operator="out"/>
<feColorMatrix type="matrix" values="0 0 0 0 0.0596905 0 0 0 0 0.101019 0 0 0 0 0.183677 0 0 0 0.27 0"/>
<feBlend mode="normal" in2="BackgroundImageFix" result="effect1_dropShadow_2151_20455"/>
<feBlend mode="normal" in="SourceGraphic" in2="effect1_dropShadow_2151_20455" result="shape"/>
</filter>
</defs>
</svg>
