<svg width="112" height="36" viewBox="0 0 112 36" fill="none" xmlns="http://www.w3.org/2000/svg">
<path d="M13.7941 0H14.7901C18.2478 0.0740191 21.6492 1.44337 24.0922 3.8675C23.1902 4.77423 22.2694 5.64396 21.3861 6.55069C20.0143 5.32937 18.3606 4.38563 16.5565 4.05254C13.888 3.4974 11.0128 3.99703 8.77654 5.49592C6.33354 7.06882 4.67982 9.73351 4.32277 12.5832C3.92813 15.396 4.7362 18.3567 6.59663 20.5403C8.3819 22.6683 11.1068 24.0007 13.9256 24.0932C16.5565 24.2412 19.3002 23.4455 21.217 21.6321C22.7204 20.3552 23.4157 18.4122 23.6412 16.5248C20.5217 16.5248 17.4022 16.5433 14.2827 16.5248V12.7128H27.4185C28.095 16.8023 27.1178 21.41 23.9607 24.3338C21.856 26.4063 18.9432 27.6276 15.974 27.8682C13.0988 28.1458 10.1296 27.6091 7.57383 26.2398C4.51069 24.6298 2.0677 21.9096 0.864991 18.7083C-0.262545 15.7661 -0.281337 12.4352 0.77103 9.47444C1.72944 6.77275 3.57108 4.38563 5.9389 2.7202C8.21277 1.07328 10.9752 0.166543 13.7941 0Z" fill="#4285F4"/>
<path d="M89.1515 0.962158H93.173V27.3869C91.8388 27.3869 90.4857 27.4054 89.1515 27.3684C89.1703 18.5787 89.1515 9.77041 89.1515 0.962158V0.962158Z" fill="#34A853"/>
<path d="M36.3632 10.1219C38.8438 9.6593 41.5311 10.1774 43.5794 11.6393C45.4398 12.9346 46.7365 14.9701 47.1312 17.1907C47.6385 19.7628 46.9996 22.5755 45.3083 24.611C43.4855 26.8871 40.4975 28.1084 37.5847 27.9234C34.9162 27.7753 32.3228 26.4615 30.7443 24.315C28.959 21.9464 28.5268 18.6896 29.504 15.9139C30.4812 12.9346 33.2437 10.6585 36.3632 10.1219V10.1219ZM36.9269 13.6378C35.9122 13.8969 34.9725 14.4705 34.296 15.2847C32.4732 17.4312 32.5859 20.9286 34.5967 22.9271C35.743 24.0744 37.4719 24.611 39.0693 24.2965C40.5539 24.0374 41.8505 23.0566 42.5646 21.7613C43.8049 19.5593 43.4479 16.5245 41.5498 14.8036C40.3283 13.6933 38.5431 13.2307 36.9269 13.6378Z" fill="#EA4335"/>
<path d="M56.2813 10.1223C59.119 9.58566 62.2197 10.3629 64.3432 12.3244C67.801 15.3777 68.1769 21.0956 65.2265 24.6116C63.4412 26.8321 60.5472 28.0535 57.6908 27.9239C54.9659 27.8499 52.2786 26.5176 50.6624 24.3155C48.8396 21.8914 48.445 18.5605 49.4785 15.7293C50.5121 12.8425 53.2182 10.6404 56.2813 10.1223V10.1223ZM56.8451 13.6382C55.8303 13.8973 54.8907 14.4709 54.2142 15.2666C52.4101 17.3762 52.4853 20.8181 54.4209 22.8351C55.5672 24.0379 57.3525 24.6301 59.0062 24.297C60.472 24.0194 61.7875 23.0572 62.5016 21.7618C63.7231 19.5412 63.366 16.5065 61.4492 14.7855C60.2277 13.6752 58.4424 13.2311 56.8451 13.6382Z" fill="#FBBC05"/>
<path d="M73.1777 11.1952C75.3388 9.86283 78.214 9.49274 80.5443 10.64C81.2772 10.9546 81.8785 11.4912 82.4611 12.0279C82.4799 11.5283 82.4611 11.0101 82.4799 10.492C83.739 10.5105 84.9981 10.492 86.2759 10.5105V26.8317C86.2571 29.2928 85.6182 31.902 83.8141 33.6969C81.8409 35.6769 78.8154 36.2876 76.0905 35.8805C73.1777 35.4549 70.6407 33.3638 69.5132 30.7177C70.6407 30.181 71.8246 29.7554 72.9898 29.2558C73.6475 30.7732 74.9818 32.0685 76.6543 32.3646C78.3268 32.6607 80.2624 32.2536 81.3523 30.8842C82.5175 29.4779 82.5175 27.5534 82.4611 25.8324C81.5966 26.6651 80.6007 27.4053 79.3979 27.6829C76.7858 28.4046 73.9106 27.5164 71.8998 25.7769C69.8703 24.0375 68.6675 21.3543 68.7803 18.6896C68.8367 15.6733 70.5656 12.7681 73.1777 11.1952V11.1952ZM77.0677 13.5638C75.9214 13.7488 74.8502 14.378 74.1173 15.2477C72.3508 17.3202 72.3508 20.6326 74.1361 22.6681C75.1509 23.8709 76.7858 24.5371 78.3644 24.3705C79.849 24.2225 81.2208 23.2973 81.9537 22.0204C83.194 19.8554 82.9873 16.9131 81.3148 15.0257C80.2812 13.8599 78.6275 13.2862 77.0677 13.5638V13.5638Z" fill="#4285F4"/>
<path d="M97.9997 12.1391C100.255 10.0666 103.731 9.3634 106.625 10.4552C109.369 11.4729 111.117 14.0451 112 16.6913C107.922 18.3567 103.863 20.0036 99.785 21.6691C100.349 22.7238 101.213 23.6861 102.378 24.0747C104.013 24.6483 105.968 24.4448 107.34 23.3715C107.884 22.9644 108.317 22.4278 108.73 21.9096C109.764 22.5943 110.797 23.2605 111.831 23.9451C110.365 26.1102 107.903 27.6276 105.254 27.8682C102.322 28.2197 99.2025 27.1095 97.3044 24.8519C94.1849 21.299 94.4856 15.3404 97.9997 12.1391V12.1391ZM100.011 15.5625C99.3716 16.4692 99.1085 17.5795 99.1273 18.6713C101.852 17.561 104.577 16.4507 107.302 15.3219C106.851 14.2857 105.761 13.6565 104.652 13.49C102.867 13.1754 101.007 14.1191 100.011 15.5625V15.5625Z" fill="#EA4335"/>
</svg>
