<svg width="168" height="50" viewBox="0 0 168 50" fill="none" xmlns="http://www.w3.org/2000/svg">
<g clip-path="url(#clip0_2141_16719)">
<path d="M32.1051 18.0476C35.2659 20.3542 39.1379 21.7113 43.32 21.7113V13.4958C42.5285 13.4959 41.7391 13.4117 40.9648 13.2442V19.711C36.7831 19.711 32.9115 18.3539 29.7499 16.0474V32.813C29.7499 41.2001 23.0901 47.9986 14.8752 47.9986C11.81 47.9986 8.9611 47.0526 6.59448 45.4301C9.29559 48.2496 13.0625 49.9987 17.2299 49.9987C25.4453 49.9987 32.1055 43.2002 32.1055 34.8128V18.0476H32.1051V18.0476ZM35.0105 9.75905C33.3952 7.95744 32.3346 5.6292 32.1051 3.05523V1.99854H29.8732C30.435 5.27005 32.3512 8.06503 35.0105 9.75905ZM11.7904 38.9942C10.8879 37.7861 10.4002 36.3083 10.4024 34.7888C10.4024 30.9529 13.4485 27.8427 17.2067 27.8427C17.9071 27.8425 18.6033 27.952 19.2708 28.1682V19.769C18.4907 19.6599 17.7035 19.6136 16.9166 19.6306V26.1681C16.2486 25.9519 15.5521 25.842 14.8515 25.8427C11.0934 25.8427 8.04735 28.9526 8.04735 32.789C8.04735 35.5016 9.56993 37.8501 11.7904 38.9942Z" fill="#FF004F"/>
<path d="M29.7504 16.0472C32.912 18.3537 36.7835 19.7109 40.9652 19.7109V13.244C38.631 12.7364 36.5646 11.4912 35.011 9.75905C32.3515 8.06486 30.4355 5.26988 29.8737 1.99854H24.0112V34.8125C23.9979 38.6379 20.9569 41.7354 17.2068 41.7354C14.997 41.7354 13.0337 40.66 11.7904 38.9942C9.57006 37.8501 8.04748 35.5015 8.04748 32.7892C8.04748 28.9531 11.0935 25.8429 14.8516 25.8429C15.5717 25.8429 16.2657 25.9574 16.9167 26.1683V19.6307C8.84615 19.801 2.35547 26.5331 2.35547 34.8127C2.35547 38.9458 3.9718 42.6926 6.59512 45.4303C8.96173 47.0526 11.8107 47.9988 14.8758 47.9988C23.0909 47.9988 29.7506 41.1999 29.7506 32.813V16.0472H29.7504Z" fill="black"/>
<path d="M40.9648 13.2445V11.4959C38.8599 11.4992 36.7964 10.8974 35.0105 9.75934C36.5914 11.5263 38.6731 12.7446 40.9648 13.2445ZM29.8733 1.999C29.8197 1.68634 29.7785 1.37163 29.7499 1.05572V-0.000976562H21.6554V32.8133C21.6424 36.6382 18.6016 39.7358 14.8512 39.7358C13.7501 39.7358 12.7105 39.4689 11.7899 38.9948C13.0333 40.6605 14.9965 41.7357 17.2064 41.7357C20.9562 41.7357 23.9976 38.6386 24.0107 34.8131V1.999H29.8733ZM16.9166 19.6312V17.7697C16.2402 17.6753 15.5583 17.628 14.8756 17.6283C6.65986 17.6281 0 24.427 0 32.8133C0 38.0711 2.61744 42.7047 6.59484 45.4304C3.97152 42.6929 2.35519 38.9459 2.35519 34.813C2.35519 26.5335 8.8457 19.8014 16.9166 19.6312Z" fill="#00F2EA"/>
<path d="M134.757 41.1242C140.635 41.1242 145.401 36.2962 145.401 30.341C145.401 24.3861 140.635 19.5571 134.757 19.5571H133.154C139.032 19.5571 143.797 24.3859 143.797 30.341C143.797 36.2962 139.032 41.1242 133.154 41.1242H134.757Z" fill="#FF004F"/>
<path d="M133.009 19.5571H131.405C125.527 19.5571 120.761 24.3859 120.761 30.341C120.761 36.2962 125.527 41.1242 131.405 41.1242H133.009C127.13 41.1242 122.364 36.2962 122.364 30.341C122.364 24.3861 127.13 19.5571 133.009 19.5571Z" fill="#00F2EA"/>
<path d="M52.0906 14.6831V20.149H58.3588V40.9765H64.6296V20.2966H69.7321L71.4816 14.6833H52.0906V14.6831ZM103.412 14.6831V20.149H109.68V40.9765H115.951V20.2966H121.053L122.802 14.6833H103.412V14.6831ZM72.6491 17.7849C72.6491 16.0722 74.0176 14.6831 75.7084 14.6831C77.4006 14.6831 78.7707 16.0722 78.7707 17.7849C78.7707 19.4978 77.4015 20.8869 75.7084 20.8869C74.0176 20.886 72.6491 19.4978 72.6491 17.7849ZM72.6491 23.1032H78.7707V40.9765H72.6491V23.1032ZM81.3955 14.6831V40.9764H87.5194V34.1821L89.415 32.408L95.3919 41.1239H101.952L93.3495 28.4205L101.077 20.7384H93.6417L87.5194 26.9422V14.6831H81.3955ZM147.441 14.6831V40.9764H153.566V34.1821L155.46 32.408L161.439 41.1239H168L159.397 28.4205L167.125 20.7384H159.69L153.566 26.9422V14.6831H147.441Z" fill="black"/>
<path d="M133.153 41.1242C139.031 41.1242 143.797 36.2962 143.797 30.341C143.797 24.3861 139.031 19.5571 133.153 19.5571H133.008C127.13 19.5571 122.364 24.3859 122.364 30.341C122.364 36.2962 127.13 41.1242 133.008 41.1242H133.153ZM127.905 30.341C127.905 27.4443 130.223 25.0979 133.082 25.0979C135.939 25.0979 138.257 27.4443 138.257 30.341C138.257 33.2378 135.939 35.5856 133.082 35.5856C130.223 35.5851 127.905 33.2378 127.905 30.341Z" fill="black"/>
</g>
<defs>
<clipPath id="clip0_2141_16719">
<rect width="168" height="50" fill="white"/>
</clipPath>
</defs>
</svg>
