<svg width="164" height="42" viewBox="0 0 164 42" fill="none" xmlns="http://www.w3.org/2000/svg">
<path d="M0 6.21539H6.41002V29.8121H18.2769V35.7903H0V6.21539ZM21.1108 15.7377H27.2687V35.7793H21.1108V15.7377ZM24.1898 5.77393C24.8963 5.77405 25.5869 5.9859 26.1742 6.38266C26.7616 6.77943 27.2193 7.34331 27.4896 8.00299C27.7599 8.66267 27.8306 9.38853 27.6926 10.0888C27.5547 10.7891 27.2145 11.4323 26.7149 11.9371C26.2152 12.4419 25.5787 12.7857 24.8858 12.9249C24.1929 13.0642 23.4746 12.9926 22.8219 12.7194C22.1692 12.4461 21.6114 11.9834 21.2189 11.3897C20.8264 10.796 20.6169 10.0981 20.6169 9.38409C20.6169 8.90994 20.7093 8.44044 20.8889 8.00239C21.0684 7.56434 21.3316 7.16633 21.6634 6.83109C21.9952 6.49585 22.389 6.22994 22.8225 6.04855C23.256 5.86716 23.7206 5.77384 24.1898 5.77393ZM53.0281 6.21085H59.186V23.8857L66.165 15.7286H73.7149L65.6326 25.0072L73.5449 35.7877H65.8052L59.2682 25.881H59.1873V35.7864H53.0294L53.0281 6.21085ZM30.6832 15.7396H36.5967V18.4785H36.6807C37.2714 17.4558 38.1258 16.6145 39.1528 16.0443C40.1797 15.4741 41.3406 15.1965 42.5115 15.2411C48.7561 15.2411 49.9055 19.3932 49.9055 24.7874V35.778H43.7476V26.034C43.7476 23.708 43.7053 20.7183 40.5403 20.7183C37.3395 20.7183 36.8456 23.251 36.8456 25.8648V35.7754H30.6877L30.6832 15.7396Z" fill="#0A66C2"/>
<path d="M86.6834 23.4271C86.6952 22.9222 86.6055 22.4201 86.4196 21.9513C86.2337 21.4825 85.9556 21.0567 85.6022 20.6998C85.2487 20.3428 84.8272 20.062 84.3632 19.8745C83.8992 19.687 83.4023 19.5966 82.9027 19.6088C81.8268 19.5412 80.7676 19.9035 79.9536 20.6178C79.1396 21.3321 78.6359 22.341 78.5511 23.4271H86.6834ZM91.8997 32.3083C90.8764 33.5623 89.59 34.5707 88.1335 35.2603C86.6771 35.95 85.0871 36.3037 83.4788 36.2957C77.3208 36.2957 72.3906 32.1417 72.3906 25.709C72.3906 19.2763 77.3202 15.1242 83.4788 15.1242C89.2345 15.1242 92.8439 19.273 92.8439 25.709V27.6602H78.5511C78.7291 28.7669 79.2968 29.7712 80.1496 30.4882C81.0024 31.2053 82.0829 31.5866 83.192 31.5621C84.0685 31.5566 84.9297 31.3297 85.6973 30.9019C86.4648 30.4742 87.1143 29.8592 87.5866 29.113L91.8997 32.3083ZM105.679 20.5819C102.6 20.5819 100.753 22.6596 100.753 25.6869C100.753 28.7143 102.6 30.7939 105.679 30.7939C108.759 30.7939 110.61 28.7195 110.61 25.6869C110.61 22.6544 108.762 20.5819 105.679 20.5819ZM116.279 35.7752H110.61V33.1173H110.526C109.815 34.0841 108.892 34.8718 107.831 35.4192C106.769 35.9666 105.596 36.2588 104.404 36.273C98.4874 36.273 94.59 31.9576 94.59 25.8548C94.59 20.25 98.039 15.1034 103.709 15.1034C106.257 15.1034 108.638 15.8081 110.034 17.7613H110.115V6.20866H116.279L116.279 35.7752ZM157.851 35.7868H151.693V26.0409C151.693 23.7169 151.652 20.7252 148.49 20.7252C145.283 20.7252 144.792 23.2573 144.792 25.8717V35.7862H138.635V15.7446H144.546V18.4835H144.629C145.221 17.4612 146.075 16.6202 147.103 16.0501C148.13 15.48 149.291 15.2021 150.462 15.2461C156.703 15.2461 157.854 19.3949 157.854 24.7923L157.851 35.7868ZM131.686 13.005C130.98 13.0051 130.289 12.7935 129.701 12.3967C129.113 12 128.655 11.4361 128.384 10.7762C128.114 10.1163 128.043 9.39021 128.181 8.68964C128.319 7.98906 128.659 7.34549 129.158 6.84033C129.658 6.33517 130.295 5.9911 130.988 5.85162C131.681 5.71215 132.4 5.78353 133.053 6.05676C133.706 6.32998 134.264 6.79277 134.657 7.3866C135.049 7.98043 135.259 8.67863 135.259 9.39291C135.259 9.86718 135.167 10.3368 134.987 10.775C134.808 11.2132 134.545 11.6114 134.213 11.9468C133.881 12.2822 133.487 12.5483 133.054 12.7299C132.62 12.9114 132.156 13.0049 131.686 13.005ZM134.765 35.7868H128.601V15.7446H134.765V35.7868ZM160.921 0.00286048H125.507C124.703 -0.0063068 123.928 0.30741 123.353 0.875073C122.778 1.44274 122.45 2.2179 122.44 3.03024V38.9691C122.449 39.7819 122.778 40.5576 123.353 41.1258C123.928 41.6941 124.702 42.0084 125.507 41.9998H160.921C161.727 42.01 162.504 41.6965 163.081 41.1283C163.658 40.5601 163.989 39.7835 164 38.9691V3.02764C163.989 2.2137 163.658 1.43765 163.081 0.870003C162.503 0.302353 161.727 -0.0104675 160.921 0.000267438V0.00286048Z" fill="#0A66C2"/>
</svg>
